<!-- sample rectangle -->
<svg width="659" height="300" xmlns="http://www.w3.org/2000/svg">
  <defs>
    <style>
      .cls-1 {
        fill: url(#linear-gradient-4);
      }

      .cls-1, .cls-2, .cls-3, .cls-4, .cls-5, .cls-6, .cls-7, .cls-8, .cls-9, .cls-10, .cls-11, .cls-12, .cls-13, .cls-14, .cls-15, .cls-16, .cls-17, .cls-18, .cls-19, .cls-20, .cls-21, .cls-22, .cls-23, .cls-24, .cls-25, .cls-26, .cls-27, .cls-28 {
        fill-rule: evenodd;
      }

      .cls-29 {
        fill: url(#linear-gradient-2);
      }

      .cls-2 {
        fill: url(#linear-gradient-12);
      }

      .cls-30, .cls-31, .cls-32, .cls-33, .cls-34, .cls-35, .cls-36 {
        fill: #fff;
      }

      .cls-37 {
        font-size: 46px;
      }

      .cls-37, .cls-31, .cls-32, .cls-33, .cls-34, .cls-38, .cls-35, .cls-36 {
        font-family: Industry-Bold, Industry;
        font-weight: 700;
      }

      .cls-39 {
        letter-spacing: -.1em;
      }

      .cls-31 {
        font-size: 60px;
      }

      .cls-40 {
        fill: #081625;
      }

      .cls-32 {
        font-size: 26px;
      }

      .cls-3 {
        fill: url(#linear-gradient-21);
      }

      .cls-42 {
        fill: url(#linear-gradient-36);
      }

      .cls-43 {
        letter-spacing: 0em;
      }

      .cls-44 {
        fill: #b1b3b5;
      }

      .cls-45 {
        fill: #303030;
      }

      .cls-46 {
        fill: url(#linear-gradient-35);
      }

      .cls-47 {
        fill: url(#linear-gradient-32);
      }

      .cls-4 {
        fill: url(#linear-gradient-15);
      }

      .cls-5 {
        fill: url(#linear-gradient-24);
      }

      .cls-6 {
        fill: url(#linear-gradient-9);
      }

      .cls-48 {
        fill: #fcbc00;
      }

      .cls-33 {
        font-size: 48px;
      }

      .cls-49 {
        letter-spacing: -.1em;
      }

      .cls-50 {
        letter-spacing: 0em;
      }

      .cls-51 {
        letter-spacing: 0em;
      }

      .cls-7 {
        fill: url(#linear-gradient-25);
      }

      .cls-34 {
        font-size: 24px;
      }

      .cls-8 {
        fill: url(#linear-gradient-6);
      }

      .cls-52 {
        fill: #0088b2;
      }

      .cls-53 {
        letter-spacing: -.02em;
      }

      .cls-9 {
        fill: url(#linear-gradient-16);
      }

      .cls-10 {
        fill: url(#linear-gradient-29);
      }

      .cls-11 {
        fill: url(#linear-gradient-26);
      }

      .cls-38 {
        fill: #ccc;
        font-size: 14px;
      }

      .cls-54 {
        fill: #101010;
      }

      .cls-12 {
        fill: url(#linear-gradient-14);
      }

      .cls-55 {
        fill: gray;
      }

      .cls-56 {
        letter-spacing: -.01em;
      }

      .cls-57 {
        letter-spacing: 0em;
      }

      .cls-35 {
        font-size: 21px;
      }

      .cls-13 {
        fill: url(#linear-gradient-5);
      }

      .cls-14 {
        fill: url(#linear-gradient-23);
      }

      .cls-15 {
        fill: url(#linear-gradient-28);
      }

      .cls-16 {
        fill: url(#linear-gradient-27);
      }

      .cls-17 {
        fill: url(#linear-gradient-10);
      }

      .cls-18 {
        fill: url(#linear-gradient-18);
      }

      .cls-19 {
        fill: url(#linear-gradient-11);
      }

      .cls-58 {
        fill: #00adee;
      }

      .cls-59 {
        letter-spacing: -.01em;
      }

      .cls-60 {
        letter-spacing: 0em;
      }

      .cls-61 {
        fill: #00d5ff;
        filter: url(#drop-shadow-1);
      }

      .cls-36 {
        font-size: 20px;
      }

      .cls-62 {
        letter-spacing: -.1em;
      }

      .cls-20 {
        fill: url(#linear-gradient-30);
      }

      .cls-63 {
        letter-spacing: -.08em;
      }

      .cls-64 {
        fill: url(#linear-gradient-34);
      }

      .cls-21 {
        fill: url(#linear-gradient-19);
      }

      .cls-65 {
        fill: #121212;
      }

      .cls-66 {
        fill: #202020;
      }

      .cls-67 {
        letter-spacing: 0em;
      }

      .cls-22 {
        fill: url(#linear-gradient-20);
      }

      .cls-68 {
        fill: #ababab;
      }

      .cls-69 {
        letter-spacing: -.02em;
      }

      .cls-23 {
        fill: url(#linear-gradient-31);
      }

      .cls-70 {
        fill: #098040;
      }

      .cls-71 {
        fill: url(#linear-gradient-3);
      }

      .cls-72 {
        fill: url(#linear-gradient);
      }

      .cls-24 {
        fill: url(#linear-gradient-22);
      }

      .cls-73 {
        letter-spacing: 0em;
      }

      .cls-74 {
        fill: url(#linear-gradient-33);
      }

      .cls-75 {
        letter-spacing: -.01em;
      }

      .cls-25 {
        fill: url(#linear-gradient-13);
      }

      .cls-26 {
        fill: url(#linear-gradient-7);
      }

      .cls-27 {
        fill: url(#linear-gradient-8);
      }

      .cls-76 {
        letter-spacing: -.01em;
      }

      .cls-28 {
        fill: url(#linear-gradient-17);
      }

      .cls-77 {
        letter-spacing: -.02em;
      }
    </style>
    <LinearGradient id="linear-gradient" x1="322" y1="221" x2="322" y2="31" gradientUnits="userSpaceOnUse">
      <stop offset="0%" stop-color="#151515"/>
      <stop offset="50%" stop-color="#252525"/>
      <stop offset="100%" stop-color="#121212"/>
    </LinearGradient>
    <LinearGradient id="linear-gradient-2" x1="470" y1="141" x2="470" y2="71" gradientUnits="userSpaceOnUse">
      <stop offset="0%" stop-color="blue" stop-opacity="70%" id="team1GradStart"/>
      <stop offset="100%" stop-color="blue" stop-opacity="0%" id="team1GradEnd"/>
    </LinearGradient>
    <LinearGradient id="linear-gradient-3" x1="470" y1="221" x2="470" y2="151" gradientUnits="userSpaceOnUse">
      <stop offset="0" stop-color="green" stop-opacity=".7" id="team2GradStart"/>
      <stop offset="1" stop-color="green" stop-opacity="0" id="team2GradEnd"/>
    </LinearGradient>
    <Filter id="drop-shadow-1" filterUnits="userSpaceOnUse">
      <feOffset dx="0" dy="0"/>
      <feGaussianBlur result="blur" stdDeviation="3"/>
      <feFlood flood-color="#000" flood-opacity=".65"/>
      <feComposite in2="blur" operator="in"/>
      <feComposite in="SourceGraphic"/>
    </Filter>
    <LinearGradient id="linear-gradient-4" x1="84.27" y1="51.18" x2="84.27" y2="196.48" gradientUnits="userSpaceOnUse">
      <stop offset=".02" stop-color="#c8c8c8"/>
      <stop offset=".2" stop-color="#fff"/>
      <stop offset=".41" stop-color="#ababab"/>
      <stop offset=".52" stop-color="#fff"/>
      <stop offset=".66" stop-color="#2c2c2c"/>
    </LinearGradient>
    <LinearGradient id="linear-gradient-5" x1="75.35" y1="51.18" x2="75.35" y2="196.48" href="#linear-gradient-4"/>
    <LinearGradient id="linear-gradient-6" x1="71.6" y1="51.18" x2="71.6" y2="196.48" href="#linear-gradient-4"/>
    <LinearGradient id="linear-gradient-7" x1="83.57" y1="51.18" x2="83.57" y2="196.48" href="#linear-gradient-4"/>
    <LinearGradient id="linear-gradient-8" x1="79.7" y1="51.18" x2="79.7" y2="196.48" href="#linear-gradient-4"/>
    <LinearGradient id="linear-gradient-9" x1="84.38" y1="51.18" x2="84.38" y2="196.48" href="#linear-gradient-4"/>
    <LinearGradient id="linear-gradient-10" x1="98.43" x2="98.43" y2="196.48" href="#linear-gradient-4"/>
    <LinearGradient id="linear-gradient-11" x1="115.25" y1="51.18" x2="115.25" y2="196.48" href="#linear-gradient-4"/>
    <LinearGradient id="linear-gradient-12" x1="91.87" y1="51.18" x2="91.87" y2="196.48" href="#linear-gradient-4"/>
    <LinearGradient id="linear-gradient-13" x1="68.48" y1="51.18" x2="68.48" y2="196.48" href="#linear-gradient-4"/>
    <LinearGradient id="linear-gradient-14" x1="71.28" y1="51.18" x2="71.28" y2="196.48" href="#linear-gradient-4"/>
    <LinearGradient id="linear-gradient-15" x1="74.33" y1="51.18" x2="74.33" y2="196.48" href="#linear-gradient-4"/>
    <LinearGradient id="linear-gradient-16" x1="85.97" y1="51.18" x2="85.97" y2="196.48" href="#linear-gradient-4"/>
    <LinearGradient id="linear-gradient-17" x1="103.94" y1="51.18" x2="103.94" y2="196.48" href="#linear-gradient-4"/>
    <LinearGradient id="linear-gradient-18" x1="205.73" y1="51.18" x2="205.73" y2="196.48" href="#linear-gradient-4"/>
    <LinearGradient id="linear-gradient-19" x1="214.65" y1="51.18" x2="214.65" y2="196.48" href="#linear-gradient-4"/>
    <LinearGradient id="linear-gradient-20" x1="218.4" y1="51.18" x2="218.4" y2="196.48" href="#linear-gradient-4"/>
    <LinearGradient id="linear-gradient-21" x1="206.43" y1="51.18" x2="206.43" y2="196.48" href="#linear-gradient-4"/>
    <LinearGradient id="linear-gradient-22" x1="210.3" y1="51.18" x2="210.3" y2="196.48" href="#linear-gradient-4"/>
    <LinearGradient id="linear-gradient-23" x1="205.62" y1="51.18" x2="205.62" y2="196.48" href="#linear-gradient-4"/>
    <LinearGradient id="linear-gradient-24" x1="191.57" y1="51.18" x2="191.57" y2="196.48" href="#linear-gradient-4"/>
    <LinearGradient id="linear-gradient-25" x1="174.75" y1="51.18" x2="174.75" y2="196.48" href="#linear-gradient-4"/>
    <LinearGradient id="linear-gradient-26" x1="198.13" y1="51.18" x2="198.13" y2="196.48" href="#linear-gradient-4"/>
    <LinearGradient id="linear-gradient-27" x1="221.52" y1="51.18" x2="221.52" y2="196.48" href="#linear-gradient-4"/>
    <LinearGradient id="linear-gradient-28" x1="218.72" y1="51.18" x2="218.72" y2="196.48" href="#linear-gradient-4"/>
    <LinearGradient id="linear-gradient-29" x1="215.67" y1="51.18" x2="215.67" y2="196.48" href="#linear-gradient-4"/>
    <LinearGradient id="linear-gradient-30" x1="204.03" y1="51.18" x2="204.03" y2="196.48" href="#linear-gradient-4"/>
    <LinearGradient id="linear-gradient-31" x1="186.06" y1="51.18" x2="186.06" y2="196.48" href="#linear-gradient-4"/>
    <LinearGradient id="linear-gradient-32" x1="133.53" y1="188.08" x2="156.49" y2="188.08" gradientUnits="userSpaceOnUse">
      <stop offset=".35" stop-color="#fff"/>
      <stop offset="1" stop-color="#474747"/>
    </LinearGradient>
    <LinearGradient id="linear-gradient-33" x1="146.16" y1="104.04" x2="139.05" y2="169.57" href="#linear-gradient-4"/>
    <LinearGradient id="linear-gradient-34" x1="155.18" y1="136.59" x2="125.41" y2="186.47" href="#linear-gradient-4"/>
    <LinearGradient id="linear-gradient-35" x1="145.07" y1="141.08" x2="145.25" y2="151.44" href="#linear-gradient-4"/>
    <LinearGradient id="linear-gradient-36" x1="960" y1="977" x2="960" y2="1067" gradientUnits="userSpaceOnUse">
      <stop offset="0" stop-color="#000" stop-opacity="0"/>
      <stop offset="1" stop-color="#098040" stop-opacity=".7"/>
    </LinearGradient>
  </defs>
  <g id="Scoreboard">
      <rect id="Scoreboard_base" data-name="Scoreboard base" fill="url(#linear-gradient)" x="42" y="31" width="560" height="190"/>
      <rect id="Scoreboard_base-2" data-name="Scoreboard base" fill="#101010" x="248" y="71" width="354" height="150"/>
      <g id="Team_1" data-name="Team 1">
        <rect id="team_1_gradient" data-name="team 1 gradient" fill="url(#linear-gradient-2)" x="338" y="71" width="264" height="70"/>
        <g id="team1Bar" color="blue">
          <rect id="team_1_vertical_bar" data-name="team 1 vertical bar"  fill="currentColor" x="334" y="61" width="4" height="80"/>
          <rect id="team_1_vertical_bar-2" data-name="team 1 vertical bar"  x="248" y="61" fill="currentColor" width="8" height="80"/>
          <rect id="team_1_top_line" data-name="team 1 top line"  x="248" y="61" fill="currentColor" width="354" height="10"/>
        </g>
        <text class="cls-33" transform="translate(350.57 116.43)" id="team1Name">BSU</text>
        <!--<g id="team1Bo5" data-name="BO5 PTS not scored" stroke="white">
          <polygon id="team1Bo5Box1" data-name="BOX 1" points="395 135 350 135 354.5 126 399.5 126 395 135" />
          <polygon id="team1Bo5Box2" data-name="BOX 2" points="449.25 135 404.25 135 408.75 126 453.75 126 449.25 135" />
          <polygon id="team1Bo5Box3" data-name="BOX 3" points="503.5 135 458.5 135 463 126 508 126 503.5 135"/>
        </g>-->
        <g id="BO7_PTS_not_scored" data-name="BO7 PTS not scored" stroke="white">
          <polygon id="team1Bo7Box1" data-name="BOX 1" points="385 135 350 135 354.5 126 389.5 126 385 135" />
          <polygon id="team1Bo7Box2" data-name="BOX 2" points="425 135 390 135 394.5 126 429.5 126 425 135" />
          <polygon id="team1Bo7Box3" data-name="BOX 3" points="465 135 430 135 434.5 126 469.5 126 465 135" />
          <polygon id="team1Bo7Box4" data-name="BOX 4" points="505 135 470 135 474.5 126 509.5 126 505 135" />
        </g>
        <text id="team1Score" data-name="Score TXT" class="cls-31" transform="translate(595 126.93)" text-anchor="end">14</text>
        <image id="team1Logo" data-name="SCHOOL LOGO" width="1080" height="1080" transform="translate(260 71) scale(.06)" href="assets/logos/default.png"/>
      </g>
      <g id="Team_2" data-name="Team 2">
        <rect id="team_2_gradient" data-name="team 2 gradient" class="cls-71" x="338" y="151" width="264" height="70"/>
        <g id="team2Bar" color="green">
          <rect id="team_2_vertical_bar" data-name="team 2 vertical bar"  x="334" y="141" width="4" height="80" fill="currentColor"/>
          <rect id="team_2_vertical_bar-2" data-name="team 2 vertical bar"  x="248" y="141" width="8" height="80" fill="currentColor"/>
          <rect id="team_2_top_line" data-name="team 2 top line"  x="248" y="141" width="354" height="10" fill="currentColor"/>
        </g>
        <text class="cls-33" transform="translate(350.57 196.43)" id="team2Name">CPP</text>
        <!--<g id="team2Bo5" data-name="BO5 PTS not scored copy" stroke="white">
          <polygon id="team2Bo5Box1" data-name="BOX 1" points="395 215 350 215 354.5 206 399.5 206 395 215" />
          <polygon id="team2Bo5Box2" data-name="BOX 2" points="449.25 215 404.25 215 408.75 206 453.75 206 449.25 215" />
          <polygon id="team2Bo5Box3" data-name="BOX 3" points="503.5 215 458.5 215 463 206 508 206 503.5 215" />
        </g>-->
        <g id="BO7_PTS_not_scored_copy" data-name="BO7 PTS not scored copy" stroke="white">
          <polygon id="team2Bo7Box1" data-name="BOX 1" points="385 215 350 215 354.5 206 389.5 206 385 215" />
          <polygon id="team2Bo7Box2" data-name="BOX 2" points="425 215 390 215 394.5 206 429.5 206 425 215" />
          <polygon id="team2Bo7Box3" data-name="BOX 3" points="465 215 430 215 434.5 206 469.5 206 465 215" />
          <polygon id="team2Bo7Box4" data-name="BOX 4" points="505 215 470 215 474.5 206 509.5 206 505 215" />
        </g>
        <text id="team2Score" data-name="Score TXT" class="cls-31" transform="translate(595 206.93)" text-anchor="end">3</text>
        <image id="team2Logo" data-name="school logo" width="1080" height="1080" transform="translate(260 151) scale(.06)" href="assets/logos/default.png"/>
      </g>
      <text class="cls-36" transform="translate(596 53.59)" text-anchor="end" id="gameInfo">BEST OF 5</text>
      <text class="cls-35" transform="translate(251.22 53.69)" id="seriesTitle">CECC GRAND FINALS</text>
      <g id="Timer_jet_out" data-name="Timer jet out">
        <rect class="cls-61" x="42" y="221" width="206" height="50"/>
        <text id="clock" class="cls-37" transform="translate(143 262.59)" text-anchor="middle">+00:00</text>
      </g>
      <g id="CECC_Logo" data-name="CECC Logo">
        <g>
          <g>
            <path class="cls-1" d="m79.79,92.91c7.12-5.23,10.11-14.73,8.82-24.57-7.81,3.62-9.6,15.25-8.82,24.57Z"/>
            <path class="cls-13" d="m75.44,74.96c-4.31,4.67-4.18,17.37.46,23.48,4.57-4.98,1.88-15.45-.46-23.48Z"/>
            <path class="cls-8" d="m70.39,88.41c-3.85,6.13-2.94,19.74,3.22,24.74,3.55-6.62.09-16.81-3.22-24.74Z"/>
            <path class="cls-26" d="m90.9,86.66c-9.77,3.27-12.59,11.16-14.66,19.54.12,1.33.93,1.1,1.15,2.21,8.06-4.89,11.49-12.86,13.51-21.75Z"/>
            <path class="cls-27" d="m78.2,129.52c3.95-5.27,6.2-14.53,3.53-22.29-3.46,5.54-7.57,13.7-3.53,22.29Z"/>
            <path class="cls-6" d="m81.31,128.4c-2.32,6.56,1.77,19.3,6.77,21.58.31-7.53-.96-18.7-6.77-21.58Z"/>
            <path class="cls-17" d="m90.96,144.06c1.58,10.45,7.01,20.15,14.95,19.76-2.8-9.38-8.74-16.26-14.95-19.76Z"/>
            <path class="cls-19" d="m105.08,156.62c4.82,6.03,12.44,12.37,20.32,11.45-2.81-8.45-11.54-12.84-20.32-11.45Z"/>
            <path class="cls-2" d="m80.98,166.42c4.63,5.61,15.07,6.81,21.78-.34-4.33-5.8-15.3-2.21-21.78.34Z"/>
            <path class="cls-25" d="m63.61,103.62l-.85.31c1.03,9.88,4.17,19.24,11.22,19.61,1.71-8.46-6.45-14.38-10.37-19.91Z"/>
            <path class="cls-12" d="m64.31,121.76c1.36,8.33,6.99,16.29,13.95,15.62-1.15-10.94-8.41-12.74-13.95-15.62Z"/>
            <path class="cls-4" d="m65.39,136.38c2.49,8.38,10.05,13.85,17.89,11.57-2.97-8.46-10.96-10.22-17.89-11.57Z"/>
            <path class="cls-9" d="m76.88,149.51c-.29.2-.03.76-.4.89,3.23,7.7,11.13,12.33,18.97,9.68-2.79-9.03-11.91-8.46-18.57-10.58Z"/>
            <path class="cls-28" d="m92.94,176.38c6.33,3.72,18.52-.88,22-8.3-5.97-4.62-17.2,3.08-22,8.3Z"/>
          </g>
          <g>
            <path class="cls-18" d="m210.21,92.91c-7.12-5.23-10.11-14.73-8.82-24.57,7.81,3.62,9.6,15.25,8.82,24.57Z"/>
            <path class="cls-21" d="m214.56,74.96c4.31,4.67,4.18,17.37-.46,23.48-4.57-4.98-1.88-15.45.46-23.48Z"/>
            <path class="cls-22" d="m219.61,88.41c3.85,6.13,2.94,19.74-3.22,24.74-3.55-6.62-.09-16.81,3.22-24.74Z"/>
            <path class="cls-3" d="m199.1,86.66c9.77,3.27,12.59,11.16,14.66,19.54-.12,1.33-.93,1.1-1.15,2.21-8.06-4.89-11.49-12.86-13.51-21.75Z"/>
            <path class="cls-24" d="m211.8,129.52c-3.95-5.27-6.2-14.53-3.53-22.29,3.46,5.54,7.57,13.7,3.53,22.29Z"/>
            <path class="cls-14" d="m208.69,128.4c2.32,6.56-1.77,19.3-6.77,21.58-.31-7.53.96-18.7,6.77-21.58Z"/>
            <path class="cls-5" d="m199.04,144.06c-1.58,10.45-7.01,20.15-14.95,19.76,2.8-9.38,8.74-16.26,14.95-19.76Z"/>
            <path class="cls-7" d="m184.92,156.62c-4.82,6.03-12.44,12.37-20.32,11.45,2.81-8.45,11.54-12.84,20.32-11.45Z"/>
            <path class="cls-11" d="m209.02,166.42c-4.63,5.61-15.07,6.81-21.78-.34,4.33-5.8,15.3-2.21,21.78.34Z"/>
            <path class="cls-16" d="m226.39,103.62l.85.31c-1.03,9.88-4.17,19.24-11.22,19.61-1.71-8.46,6.45-14.38,10.37-19.91Z"/>
            <path class="cls-15" d="m225.69,121.76c-1.36,8.33-6.99,16.29-13.95,15.62,1.15-10.94,8.41-12.74,13.95-15.62Z"/>
            <path class="cls-10" d="m224.61,136.38c-2.49,8.38-10.05,13.85-17.89,11.57,2.97-8.46,10.96-10.22,17.89-11.57Z"/>
            <path class="cls-20" d="m213.12,149.51c.29.2.03.76.4.89-3.23,7.7-11.13,12.33-18.97,9.68,2.79-9.03,11.91-8.46,18.57-10.58Z"/>
            <path class="cls-23" d="m197.06,176.38c-6.33,3.72-18.52-.88-22-8.3,5.97-4.62,17.2,3.08,22,8.3Z"/>
          </g>
        </g>
        <g>
          <polygon class="cls-68" points="164.39 178.89 125.63 178.89 136.43 189.98 145.01 192.99 153.58 189.98 164.39 178.89"/>
          <polygon class="cls-47" points="156.49 181.03 133.53 181.03 139.93 192.12 145.01 195.13 150.09 192.12 156.49 181.03"/>
        </g>
        <g>
          <path class="cls-40" d="m113.85,147.94c-9.9-1.9-20.05-3.6-30.43-5.09,9.33-1.26,18.71-2.35,28.12-3.26.77,2.78,1.54,5.57,2.31,8.35Z"/>
          <path class="cls-40" d="m115.96,147.73l-2.01-7.29-.3-1.07c-.18-.69-1.27-1.15-2.45-1.05-9.43.92-18.94,2.02-28.25,3.27-.28.04-.55.11-.77.21l.88,2.28s.05,0,.08.01c10.14,1.46,20.25,3.15,30.07,5.03.21.04.43.07.65.07.51,0,1-.11,1.39-.31.56-.29.83-.73.71-1.17Zm-6.18-6.69l1.39,5.06c-6.06-1.13-12.23-2.19-18.43-3.16,5.66-.69,11.36-1.33,17.03-1.9Z"/>
        </g>
        <g>
          <path class="cls-40" d="m176.13,147.94c9.9-1.9,20.05-3.6,30.43-5.09-9.33-1.26-18.71-2.35-28.12-3.26-.77,2.78-1.54,5.57-2.31,8.35Z"/>
          <path class="cls-40" d="m174.74,148.9c.4.2.89.31,1.39.31.22,0,.44-.02.65-.07,9.82-1.88,19.93-3.57,30.07-5.03.03,0,.05,0,.08-.01l.88-2.28c-.22-.1-.49-.17-.77-.21-9.31-1.26-18.82-2.36-28.25-3.27-1.18-.11-2.27.35-2.45,1.05l-.3,1.07-2.01,7.29c-.12.43.15.88.71,1.17Zm22.5-5.96c-6.2.97-12.36,2.03-18.43,3.16l1.39-5.06c5.68.57,11.38,1.21,17.03,1.9Z"/>
        </g>
        <g>
          <polygon class="cls-40" points="145.11 147.49 103.87 175.22 116.07 127.66 79.05 96.64 126.88 94.69 145.16 48 162.69 94.04 212.29 96.48 174.16 127.68 186.36 175.22 145.11 147.49"/>
          <polygon class="cls-40" points="180.82 167.37 170.31 126.42 203.25 99.46 160.29 97.35 145.11 57.49 129.25 98.02 88.02 99.7 119.92 126.42 109.41 167.37 145.11 143.37 180.82 167.37"/>
          <g>
            <path class="cls-58" d="m108.47,168.66l11.44-42.24-34.09-27.45,43.71-2.17,15.57-40.9,15.57,40.9,43.71,2.17-34.09,27.45,11.44,42.24-36.64-23.94-36.64,23.94Zm36.64-25.29l34.77,22.71-10.86-40.08.29-.23,32.06-25.81-41.48-2.06-14.78-38.81-14.78,38.81-41.48,2.06,32.35,26.05-.1.36-10.76,39.73,34.77-22.71Z"/>
            <polygon class="cls-58" points="145.11 119.31 145.11 57.49 160.29 97.35 145.11 119.31"/>
            <polygon class="cls-58" points="145.11 119.31 129.94 97.35 87.35 99.46 145.11 119.31"/>
            <polygon class="cls-58" points="145.11 119.31 202.88 99.46 169.67 126.21 145.11 119.31"/>
            <polygon class="cls-58" points="145.11 119.31 180.82 167.37 145.11 144.05 145.11 119.31"/>
            <polygon class="cls-58" points="145.11 119.31 109.41 167.37 120.56 126.21 145.11 119.31"/>
          </g>
          <polygon class="cls-52" points="133.52 107.49 127.8 98.21 90.78 99.86 125.51 99.46 133.52 107.49"/>
          <polyline class="cls-52" points="119.07 139.58 124.04 142.79 110.53 165.42 119.42 144.12 118.72 141.09"/>
          <polygon class="cls-52" points="156.63 100.85 159.6 97.76 156.2 87.86 155.03 87.86 158.38 97.35 156.63 100.85"/>
        </g>
        <path class="cls-74" d="m214,114.67l-6.17,27.15-.52,2.28v.02s-.05-.01-.05-.01l-2.42-.55c-.11-.02-.22-.05-.33-.07-4.74-1.08-9.5-2.02-14.29-2.83-.42-.07-.83-.14-1.25-.21-14.53-2.4-29.25-3.61-43.96-3.61s-29.44,1.21-43.96,3.61c-.42.07-.83.14-1.25.21-4.78.81-9.55,1.75-14.29,2.83-.11.02-.22.05-.33.07l-2.42.55h-.04s0-.01,0-.01l-.52-2.28-6.17-27.15,2.46-.56c21.8-4.96,44.18-7.47,66.53-7.47s44.74,2.51,66.53,7.47l2.46.56Z"/>
        <path class="cls-40" d="m205.4,141.09c-39.75-9.04-81.03-9.04-120.79,0-1.86-8.17-3.72-16.35-5.57-24.52,43.42-9.87,88.51-9.87,131.94,0-1.86,8.17-3.72,16.35-5.57,24.52Z"/>
        <g>
          <path class="cls-40" d="m103.11,97.36l4.82-19.91c.93-3.84,4.34-6.53,8.3-6.53h70.95l-5.08,20c-.96,3.79-4.36,6.43-8.27,6.43h-70.71Z"/>
          <path class="cls-40" d="m186.1,71.75h-69.88c-3.56,0-6.65,2.43-7.48,5.89l-4.57,18.88h69.65c3.52,0,6.6-2.39,7.46-5.81l4.82-18.96Z"/>
          <g>
            <path class="cls-30" d="m118.97,88.96c-.1.37-.48.67-.85.67h-5.32l2.93-10.95c.1-.38.49-.68.87-.68h5.33l-.42,1.56h5.94l1.79-6.69h-14.16c-2.08,0-4.21,1.68-4.77,3.76l-4.86,18.14h14.13c2.09,0,4.24-1.69,4.8-3.79l.8-2.98h-5.97l-.26.96Z"/>
            <path class="cls-30" d="m182.75,79.56l1.79-6.69h-14.16c-2.08,0-4.21,1.68-4.77,3.76l-4.86,18.14h14.13c2.09,0,4.24-1.69,4.8-3.79l.8-2.98h-5.97l-.26.96c-.1.37-.48.67-.85.67h-5.32l2.93-10.95c.1-.38.49-.68.87-.68h5.33l-.42,1.56h5.94Z"/>
            <polygon class="cls-30" points="135.29 78.01 144.13 78.01 145.5 72.87 130.65 72.87 128.41 81.23 125.88 81.23 127.08 86.21 124.78 94.77 139.63 94.77 141.01 89.63 132.18 89.63 133.04 86.41 141.87 86.41 143.26 81.23 134.43 81.23 135.29 78.01"/>
          </g>
          <path class="cls-44" d="m121.67,90.12c-.33,1.22-1.44,2.07-2.71,2.07h-9.82l3.66-2.56,2.93-10.95c.1-.38.49-.68.87-.68h5.33l3.67-2.58h-9.38c-1.53,0-2.88,1.03-3.27,2.51l-3.82,14.26-3.67,2.58h14.13c2.09,0,4.24-1.69,4.8-3.79l.8-2.98-3.39,1.63-.13.48Z"/>
          <polygon class="cls-44" points="121.51 79.56 127.45 79.56 129.24 72.87 125.59 75.43 124.89 78.01 121.51 79.56"/>
          <path class="cls-44" d="m168.25,77.93l-3.82,14.26-3.67,2.58h14.13c2.09,0,4.24-1.69,4.8-3.79l.8-2.98-3.42,1.63-.14.51c-.32,1.21-1.42,2.05-2.67,2.05h-9.85l3.67-2.56,2.93-10.95c.1-.38.49-.68.87-.68h5.33l3.67-2.58h-9.39c-1.53,0-2.87,1.03-3.26,2.5Z"/>
          <polygon class="cls-44" points="176.81 79.56 182.75 79.56 184.55 72.87 180.9 75.43 180.19 78.01 176.81 79.56"/>
          <path class="cls-30" d="m163.03,79.56l1.79-6.69h-14.16c-2.08,0-4.21,1.68-4.77,3.76l-4.86,18.14h14.13c2.09,0,4.24-1.69,4.8-3.79l.8-2.98h-5.97l-.26.96c-.1.37-.48.67-.85.67h-5.32l2.93-10.95c.1-.38.49-.68.87-.68h5.33l-.42,1.56h5.94Z"/>
          <path class="cls-44" d="m148.53,77.93l-3.82,14.26-3.67,2.58h14.13c2.09,0,4.24-1.69,4.8-3.79l.8-2.98-3.42,1.63-.14.51c-.32,1.21-1.42,2.05-2.67,2.05h-9.85l3.67-2.56,2.93-10.95c.1-.38.49-.68.87-.68h5.33l3.67-2.58h-9.39c-1.53,0-2.87,1.03-3.26,2.5Z"/>
          <polygon class="cls-44" points="157.09 79.56 163.03 79.56 164.83 72.87 161.18 75.43 160.47 78.01 157.09 79.56"/>
          <polygon class="cls-44" points="139.63 94.77 141.01 89.63 137.33 92.19 128.51 92.19 124.78 94.77 139.63 94.77"/>
          <polygon class="cls-44" points="130.75 83.81 128.51 92.19 132.18 89.63 133.04 86.41 141.87 86.41 143.26 81.23 139.59 83.81 130.75 83.81"/>
          <polygon class="cls-44" points="135.29 78.01 144.13 78.01 145.5 72.87 141.83 75.43 133 75.43 130.75 83.81 134.43 81.23 135.29 78.01"/>
        </g>
        <g>
          <g>
            <path class="cls-40" d="m165.7,143.2c.05-.65.11-1.29.16-1.94.01-.17-.12-.33-.29-.34-13.62-1.11-27.3-1.11-40.92,0-.18.01-.31.17-.29.34.05.65.11,1.29.16,1.94-2.83.24-5.66.52-8.48.85-.02-.48-.03-.96-.05-1.45-.06-2.08-1.25-3.79-3.71-5.16-1.16-.65-2.33-1.29-3.51-1.93,3.57-.51,7.14-.94,10.72-1.3-.14-1.61,1.12-3.06,2.83-3.21,15.17-1.33,30.42-1.33,45.59,0,1.71.15,2.97,1.6,2.83,3.21,3.58.36,7.15.79,10.71,1.3-1.18.63-2.35,1.28-3.51,1.93-2.46,1.38-3.65,3.08-3.71,5.16-.01.48-.03.96-.04,1.45-2.82-.33-5.65-.62-8.48-.85Z"/>
            <path class="cls-58" d="m177.23,136.29c-2-.25-4-.48-6-.69-.8,1.21-1.59,2.43-2.37,3.65.16-1.71.32-3.42.48-5.13.09-.91-.61-1.71-1.56-1.8-2.37-.21-4.73-.38-7.1-.52-10.59-.64-21.21-.62-31.8.04-2.15.13-4.31.3-6.46.49-.95.08-1.65.89-1.56,1.8.16,1.71.32,3.42.48,5.13-.78-1.22-1.57-2.44-2.37-3.65-2,.21-4.01.43-6.01.69,2.89,1.63,4.29,3.75,4.35,6.27,1.91-.21,3.83-.41,5.74-.58-.02-.21-.04-.41-.05-.62-.08-.91.6-1.71,1.52-1.78,13.69-1.12,27.45-1.12,41.14,0,.92.08,1.6.88,1.52,1.78-.02.21-.04.41-.05.62,1.91.17,3.83.36,5.74.58.06-2.52,1.46-4.65,4.35-6.27Z"/>
          </g>
          <g>
            <path class="cls-30" d="m135.48,133.53c-.36.02-.72.03-1.09.05-.02-.34-.03-.68-.05-1.01,1.1-.05,2.19-.1,3.29-.13.01.34.02.68.03,1.01-.36.01-.72.02-1.08.04.06,1.49.11,2.98.17,4.47-.36.01-.72.03-1.09.04-.06-1.49-.13-2.98-.19-4.47Z"/>
            <path class="cls-30" d="m140.1,136.84c.61-.01,1.22-.02,1.83-.03,0,.34,0,.68.01,1.01-.97.01-1.94.03-2.91.06-.05-1.83-.1-3.66-.15-5.49.99-.03,1.99-.05,2.98-.06,0,.34,0,.68.01,1.01-.62,0-1.24.02-1.85.03,0,.41.02.81.03,1.22.51-.01,1.02-.02,1.54-.03,0,.34.01.68.02,1.02-.51,0-1.02.02-1.53.03,0,.41.02.82.03,1.22Z"/>
            <path class="cls-30" d="m144.26,137.8c-.37,0-.74,0-1.11,0,.27-.92.54-1.84.81-2.75-.28-.91-.57-1.83-.86-2.74.38,0,.76,0,1.13,0,.16.5.36,1.24.59,2.23.24-.99.43-1.73.59-2.23.38,0,.76,0,1.14,0-.29.91-.57,1.83-.85,2.74.28.92.55,1.83.82,2.75-.37,0-.74,0-1.11,0-.15-.5-.34-1.25-.58-2.24-.24.99-.43,1.74-.57,2.24Z"/>
            <path class="cls-30" d="m149,136.72c-.08.37-.16.74-.24,1.11-.37,0-.74-.01-1.1-.02.38-1.83.76-3.65,1.15-5.47.49,0,.99.02,1.48.03.32,1.84.63,3.68.94,5.51-.37-.01-.74-.02-1.11-.03-.06-.37-.13-.75-.19-1.12-.31,0-.62-.01-.93-.02Zm.22-1.01c.18,0,.36,0,.53.01-.07-.78-.15-1.56-.22-2.34-.1.78-.21,1.56-.31,2.33Z"/>
            <path class="cls-30" d="m154.8,133.53c-.35-.01-.7-.03-1.05-.04-.01.29-.02.58-.03.87,0,.23.16.36.51.37.46.02.83.16,1.13.41.31.27.46.61.44,1.03-.02.38-.04.76-.05,1.13,0,.21-.1.38-.27.52-.16.14-.35.2-.57.19-.53-.02-1.07-.04-1.6-.06-.22,0-.4-.09-.56-.24-.15-.15-.23-.33-.22-.54.01-.37.02-.74.04-1.11.37.01.73.02,1.1.04-.01.28-.02.56-.03.84.35.01.69.03,1.04.04.01-.29.02-.58.04-.87.01-.24-.16-.36-.51-.38-.45-.02-.83-.15-1.12-.4-.32-.27-.47-.61-.45-1.03.01-.38.02-.76.04-1.13,0-.21.09-.38.26-.52.17-.14.36-.2.59-.19.55.02,1.09.04,1.64.07.22,0,.41.09.57.24.16.16.23.34.22.54-.02.37-.03.73-.05,1.1-.37-.02-.74-.03-1.11-.05.01-.28.02-.56.04-.84Z"/>
          </g>
        </g>
        <g>
          <path class="cls-30" d="m103.6,116.51c.59,4.45,1.18,8.9,1.77,13.35-.89.12-1.78.24-2.67.37-.41-2.93-.83-5.86-1.24-8.79-.22,3.02-.43,6.04-.61,9.05-1.08.16-2.15.32-3.23.5-1.09-2.82-2.19-5.64-3.32-8.45.48,2.92.97,5.84,1.45,8.75-.89.15-1.77.3-2.66.45-.77-4.42-1.54-8.84-2.32-13.27,1.28-.22,2.56-.44,3.85-.65,1.44,3.46,2.84,6.93,4.22,10.41.27-3.73.56-7.46.89-11.2,1.29-.19,2.57-.37,3.86-.54Z"/>
          <path class="cls-30" d="m109.66,126.57c-.08.93-.15,1.85-.22,2.78-.9.11-1.8.22-2.7.33.3-4.56.63-9.13,1.01-13.69,1.24-.15,2.47-.29,3.71-.42,1.38,4.37,2.73,8.74,4.04,13.12-.9.09-1.81.18-2.71.28-.27-.89-.55-1.77-.82-2.66-.77.08-1.54.17-2.3.26Zm.2-2.53c.44-.05.88-.1,1.33-.15-.43-1.88-.87-3.75-1.31-5.63,0,1.93-.02,3.85-.02,5.78Z"/>
          <path class="cls-30" d="m119.73,123.67c.13,1.53.25,3.06.38,4.59-.89.07-1.78.15-2.68.23-.14-1.53-.28-3.05-.42-4.58-1.22-2.86-2.47-5.7-3.75-8.54.95-.1,1.9-.19,2.85-.28.53,1.27,1.21,3.36,2.04,6.29.31-3.03.62-5.21.92-6.55.95-.08,1.9-.15,2.86-.22-.76,3.02-1.49,6.04-2.2,9.06Z"/>
          <path class="cls-30" d="m139.87,113.8c.08,4.49.15,8.98.23,13.46-.89.02-1.79.03-2.68.06-.08-2.96-.15-5.91-.23-8.87-.56,2.97-1.11,5.95-1.64,8.93-1.09.03-2.17.08-3.26.12-.75-2.93-1.53-5.85-2.32-8.78.15,2.95.29,5.91.44,8.86-.89.04-1.79.09-2.68.14-.26-4.48-.52-8.96-.78-13.44,1.29-.08,2.59-.14,3.88-.2,1.03,3.6,2.03,7.21,2.99,10.83.69-3.68,1.41-7.35,2.16-11.02,1.3-.04,2.59-.07,3.89-.09Z"/>
          <path class="cls-30" d="m144.73,124.49c-.18.91-.36,1.82-.54,2.73-.91,0-1.81.01-2.72.02.82-4.5,1.67-9,2.57-13.49,1.24,0,2.49,0,3.73,0,.87,4.5,1.71,8.99,2.51,13.5-.91-.01-1.82-.03-2.72-.03-.17-.91-.34-1.82-.51-2.73-.77,0-1.54,0-2.31,0Zm.49-2.49c.44,0,.89,0,1.33,0-.21-1.91-.43-3.83-.65-5.74-.23,1.91-.46,3.82-.68,5.74Z"/>
          <path class="cls-30" d="m151.66,113.82c2.06.04,4.13.1,6.19.18.56.02,1.04.22,1.43.59.39.38.58.82.56,1.33-.13,2.75-.25,5.5-.38,8.25-.05,1.03-.48,1.84-1.3,2.43-.77.56-1.7.81-2.81.78-1.32-.04-2.64-.08-3.95-.11.09-4.49.18-8.98.27-13.46Zm2.73,2.56c-.08,2.83-.16,5.65-.25,8.48.43.01.85.03,1.28.04.85.03,1.29-.25,1.31-.83.09-2.53.19-5.07.28-7.6-.88-.03-1.75-.06-2.63-.09Z"/>
          <path class="cls-30" d="m164.5,119.14c-.18,2.89-.36,5.77-.53,8.66-.89-.06-1.79-.11-2.68-.15.24-4.48.47-8.96.71-13.45,1.29.07,2.59.14,3.88.23.58,2.95,1.13,5.9,1.66,8.85.21-2.9.42-5.79.63-8.69.93.07,1.86.14,2.8.21-.36,4.47-.73,8.95-1.09,13.42-1.24-.1-2.47-.19-3.71-.28-.53-2.94-1.09-5.87-1.67-8.8Z"/>
          <path class="cls-30" d="m174.93,126.17c1.5.15,3,.3,4.49.47-.09.83-.19,1.65-.28,2.48-2.37-.27-4.75-.5-7.13-.71.39-4.47.79-8.94,1.18-13.41,2.48.22,4.97.47,7.45.75-.09.83-.19,1.65-.28,2.48-1.54-.17-3.08-.33-4.62-.48-.1.99-.19,1.99-.29,2.98,1.27.12,2.54.25,3.81.39-.09.83-.18,1.66-.27,2.48-1.26-.14-2.52-.27-3.77-.39-.1.99-.19,1.99-.29,2.98Z"/>
          <path class="cls-30" d="m186.93,119.01c-.87-.12-1.74-.23-2.62-.34-.09.7-.18,1.41-.26,2.11-.07.57.32.91,1.19,1.03,1.13.15,2.03.57,2.7,1.25.72.73,1,1.61.85,2.63-.13.92-.26,1.83-.39,2.75-.07.5-.33.91-.77,1.21-.44.3-.92.41-1.45.34-1.31-.18-2.61-.35-3.92-.51-.53-.07-.97-.3-1.32-.7-.35-.4-.5-.86-.44-1.37.1-.9.21-1.8.31-2.7.9.1,1.81.21,2.71.33-.09.68-.17,1.36-.26,2.05.85.11,1.7.22,2.55.33.09-.7.19-1.4.28-2.11.08-.57-.31-.92-1.17-1.03-1.12-.14-2.02-.55-2.7-1.23-.73-.72-1.03-1.59-.91-2.61.11-.92.21-1.84.32-2.76.06-.51.31-.91.76-1.22.44-.31.95-.42,1.51-.36,1.37.17,2.73.34,4.1.53.56.08,1.01.32,1.37.73.36.41.5.87.43,1.38-.13.89-.25,1.79-.38,2.68-.91-.13-1.83-.26-2.74-.38.09-.68.18-1.36.27-2.04Z"/>
          <path class="cls-30" d="m196.63,120.46c-.87-.14-1.74-.28-2.61-.42-.11.7-.22,1.4-.33,2.1-.09.57.3.92,1.16,1.06,1.13.18,2.02.63,2.67,1.34.69.75.95,1.64.77,2.65-.16.91-.32,1.82-.48,2.74-.09.5-.36.9-.81,1.18-.45.28-.93.38-1.47.29-1.3-.22-2.6-.43-3.91-.63-.53-.08-.97-.33-1.3-.74-.34-.42-.47-.87-.4-1.38.13-.9.26-1.79.4-2.69.9.13,1.8.27,2.7.41-.11.68-.21,1.36-.32,2.04.85.13,1.69.27,2.54.41.12-.7.23-1.4.35-2.1.09-.57-.28-.93-1.14-1.07-1.12-.18-2-.61-2.66-1.31-.7-.74-.98-1.62-.83-2.64.14-.92.27-1.83.41-2.75.07-.5.34-.9.8-1.2.45-.29.96-.39,1.52-.31,1.36.21,2.72.43,4.08.66.56.09,1,.35,1.35.77.35.43.47.89.38,1.39-.16.89-.31,1.78-.47,2.67-.91-.16-1.82-.31-2.73-.46.11-.68.22-1.35.34-2.03Z"/>
        </g>
        <g>
          <polygon class="cls-64" points="115.88 143.95 124.94 149.48 124.94 178.14 145.12 189.37 165.29 178.14 165.29 149.48 174.35 143.95 115.88 143.95"/>
          <polygon class="cls-55" points="122.06 145.67 126.81 148.56 126.81 177.17 145.12 187.37 163.42 177.17 163.42 148.56 168.17 145.67 122.06 145.67"/>
          <polygon class="cls-40" points="167.68 145.8 163.28 148.49 163.28 177.1 145.12 187.21 126.96 177.1 126.96 148.49 122.55 145.8 167.68 145.8"/>
        </g>
        <path class="cls-48" d="m150.14,154.35c-1.98,0-3.59,7.71-3.59,17.22h-2.87c0-9.51-1.61-17.22-3.59-17.22s-3.59,8.35-3.59,18.66h-2.87c0-11.1,2.89-20.09,6.46-20.09,2.03,0,3.84,2.7,5.02,6.93,1.18-4.23,2.99-6.93,5.02-6.93,3.57,0,6.46,9,6.46,20.09h-2.87c0-10.3-1.61-18.66-3.59-18.66"/>
        <g>
          <g>
            <path class="cls-40" d="m139.99,181.16h-1.2c-.33,0-.63.12-.86.33-.25.23-.39.53-.39.87v1.51h.28c-.19.28-.28.61-.28.98v2.19h3.7v-1.98h-1.46c.36-.06.66-.2.91-.43.36-.32.54-.76.54-1.29v-.99c0-.34-.13-.64-.39-.87-.24-.22-.54-.33-.87-.33Z"/>
            <path class="cls-40" d="m152.26,182.36c0-.34-.13-.64-.39-.87-.24-.22-.54-.33-.87-.33h-1.2c-.33,0-.63.12-.86.33-.18.17-.3.37-.35.6-.05-.23-.17-.43-.35-.6-.24-.22-.54-.33-.87-.33h-1.2c-.33,0-.63.12-.86.33-.19.17-.31.39-.36.62-.05-.24-.17-.45-.36-.62-.24-.22-.54-.33-.87-.33h-1.2c-.33,0-.63.12-.86.33-.25.23-.39.53-.39.87v3.48c0,.34.13.64.39.87.24.22.54.33.86.33h1.2c.33,0,.63-.12.87-.33.17-.15.28-.34.34-.54v.88h3.7v-.83c.06.19.17.36.32.5.24.22.54.33.86.33h1.2c.33,0,.63-.12.87-.33.25-.23.39-.53.39-.87v-.99c0-.28-.05-.53-.16-.75.11-.22.16-.47.16-.75v-.99Zm-7.29,2.07v-.56h.23c-.11.17-.19.35-.23.56Zm3.59-.1v.73h-1.39c.36-.06.66-.2.91-.43.24-.22.4-.49.48-.81v.05h.84v.46h-.84Z"/>
          </g>
          <g>
            <path class="cls-30" d="m139.04,185.61h1.66v.89h-2.61v-1.64c0-.37.12-.66.37-.88.24-.21.55-.32.94-.32.13,0,.22-.02.27-.06.06-.05.08-.13.08-.25v-.76h-.71v.73h-.95v-.96c0-.18.07-.34.21-.46.14-.13.3-.19.49-.19h1.2c.19,0,.36.06.5.19.14.13.21.28.21.46v.99c0,.37-.12.66-.36.88-.24.21-.55.32-.94.32-.13,0-.22.02-.27.06-.06.05-.08.13-.08.25v.76Z"/>
            <path class="cls-30" d="m143.71,181.71c.19,0,.36.06.5.19.14.13.21.28.21.46v3.48c0,.18-.07.34-.21.46-.14.13-.3.19-.5.19h-1.2c-.19,0-.35-.06-.49-.19-.14-.13-.21-.28-.21-.46v-3.48c0-.18.07-.34.21-.46.14-.13.3-.19.49-.19h1.2Zm-.95.89v3.02h.71v-3.02h-.71Z"/>
            <path class="cls-30" d="m146.41,185.61h1.66v.89h-2.61v-1.64c0-.37.12-.66.37-.88.24-.21.55-.32.94-.32.13,0,.22-.02.27-.06.06-.05.08-.13.08-.25v-.76h-.71v.73h-.95v-.96c0-.18.07-.34.21-.46.14-.13.3-.19.49-.19h1.2c.19,0,.36.06.5.19.14.13.21.28.21.46v.99c0,.37-.12.66-.36.88-.24.21-.55.32-.94.32-.13,0-.22.02-.27.06-.06.05-.08.13-.08.25v.76Z"/>
            <path class="cls-30" d="m150.76,182.59h-.71v.73h-.95v-.96c0-.18.07-.34.21-.46.14-.13.3-.19.49-.19h1.2c.19,0,.36.06.5.19.14.13.21.28.21.46v.99c0,.31-.09.56-.27.75.18.19.27.44.27.75v.99c0,.18-.07.34-.21.46-.14.13-.3.19-.5.19h-1.2c-.19,0-.35-.06-.49-.19-.14-.13-.21-.28-.21-.46v-.97h.95v.73h.71v-.76c0-.12-.03-.2-.08-.25-.05-.04-.14-.06-.27-.06h-.47v-.89h.47c.13,0,.22-.02.27-.06.06-.05.08-.13.08-.25v-.76Z"/>
          </g>
        </g>
        <g>
          <polygon class="cls-46" points="149.48 143.89 146.24 143.73 145.1 140.72 143.91 143.75 140.75 143.88 143.2 145.93 142.39 149.07 145.09 147.26 147.78 149.07 146.98 145.93 149.48 143.89"/>
          <polygon class="cls-40" points="148.08 144.35 145.87 144.24 145.09 142.19 144.28 144.27 142.15 144.36 143.79 145.74 143.25 147.85 145.09 146.62 146.92 147.85 146.38 145.74 148.08 144.35"/>
        </g>
      </g>
    </g>
</svg>